<svg xmlns="http://www.w3.org/2000/svg" width="20" height="20" viewBox="0 0 24 24" fill="none">
  <path 
    fill-rule="evenodd" 
    clip-rule="evenodd" 
    d="M17.4974 3.60022C17.886 3.60022 18.2011 3.91526 18.2011 4.30388V5.71121H18.9487C19.4345 5.71121 19.8282 6.10501 19.8282 6.5908V13.6714C19.8282 14.1572 19.4345 14.551 18.9487 14.551H18.2011V15.9583C18.2011 16.347 17.886 16.662 17.4974 16.662C17.1088 16.662 16.7937 16.347 16.7937 15.9583V14.551H16.046C15.5603 14.551 15.1665 14.1572 15.1665 13.6714V6.5908C15.1665 6.10501 15.5603 5.71121 16.046 5.71121H16.7937V4.30388C16.7937 3.91526 17.1088 3.60022 17.4974 3.60022ZM11.7141 5.1175C12.1028 5.1175 12.4178 5.43254 12.4178 5.82116V7.22849H13.1654C13.6513 7.22849 14.045 7.62229 14.045 8.10807V11.5164C14.045 12.0023 13.6513 12.396 13.1654 12.396H12.4178V13.8034C12.4178 14.192 12.1028 14.507 11.7141 14.507C11.3255 14.507 11.0105 14.192 11.0105 13.8034V12.396H10.2628C9.77704 12.396 9.38324 12.0023 9.38324 11.5164V8.10807C9.38324 7.62229 9.77704 7.22849 10.2628 7.22849H11.0105V5.82116C11.0105 5.43254 11.3255 5.1175 11.7141 5.1175ZM6.63455 8.0421C6.63455 7.65348 6.31951 7.33844 5.93089 7.33844C5.54227 7.33844 5.22722 7.65348 5.22722 8.0421V9.44943H4.47958C3.9938 9.44943 3.6 9.84323 3.6 10.329V17.4096C3.6 17.8955 3.9938 18.2892 4.47958 18.2892H5.22722V19.6966C5.22722 20.0852 5.54227 20.4002 5.93089 20.4002C6.31951 20.4002 6.63455 20.0852 6.63455 19.6966V18.2892H7.3822C7.86798 18.2892 8.26178 17.8955 8.26178 17.4096V10.329C8.26178 9.84323 7.86798 9.44943 7.3822 9.44943H6.63455V8.0421Z" 
    fill="currentColor" 
  />
</svg>
