<svg xmlns="http://www.w3.org/2000/svg" width="92" height="19" viewBox="0 0 92 19" fill="none">
  <g clip-path="url(#clip0_524_1275)">
    <path
      d="M5.6445 8.40689L9.2159 4.91141L12.7892 8.40874L14.8673 6.37474L9.2159 0.84314L3.56641 6.3729L5.6445 8.40689Z"
      fill="white" />
    <path d="M4.17669 9.8428L2.09863 7.80884L0.0204749 9.8429L2.09853 11.8769L4.17669 9.8428Z" fill="white" />
    <path
      d="M5.64413 11.2794L9.21554 14.7749L12.7887 11.2777L14.8679 13.3106L14.8669 13.3117L9.21554 18.8432L3.56589 13.3136L3.56299 13.3107L5.64413 11.2794Z"
      fill="white" />
    <path d="M16.333 11.8778L18.4111 9.84375L16.3331 7.80979L14.2549 9.84385L16.333 11.8778Z" fill="white" />
    <path
      d="M11.3236 9.84207H11.3245L9.21571 7.77808L7.65733 9.30339H7.65718L7.47823 9.47869L7.10886 9.84022L7.10596 9.84306L7.10886 9.84605L9.21571 11.9082L11.3245 9.8442L11.3255 9.84306L11.3236 9.84207Z"
      fill="white" />
    <path
      d="M21.6509 5.20471H26.1706C27.2924 5.20471 28.1406 5.48649 28.7155 6.05004C29.1604 6.4865 29.3828 7.02744 29.3828 7.67274V7.70004C29.3828 7.97272 29.3484 8.21369 29.2791 8.42268C29.21 8.63195 29.1176 8.82032 29.0021 8.98851C28.8869 9.15683 28.753 9.30455 28.6008 9.43164C28.4484 9.55903 28.2847 9.66821 28.1094 9.75891C28.6733 9.96818 29.1172 10.2521 29.4408 10.6112C29.7643 10.9705 29.9262 11.4682 29.9262 12.1044V12.1316C29.9262 12.568 29.8405 12.9497 29.669 13.2771C29.4974 13.6043 29.2517 13.8771 28.9317 14.0953C28.6117 14.3135 28.2269 14.477 27.7772 14.5862C27.3275 14.6953 26.8292 14.7497 26.2823 14.7497H21.6509V5.20471ZM25.7188 9.06357C26.1926 9.06357 26.5688 8.98424 26.8472 8.82501C27.1258 8.66593 27.2651 8.40903 27.2651 8.05461V8.02731C27.2651 7.70928 27.1442 7.46617 26.9028 7.29785C26.6613 7.12966 26.313 7.0455 25.858 7.0455H23.7404V9.06357H25.7188ZM26.29 12.9091C26.7637 12.9091 27.1349 12.8252 27.4045 12.6569C27.6738 12.4887 27.8086 12.2272 27.8086 11.8727V11.8455C27.8086 11.5273 27.6831 11.2751 27.4324 11.0886C27.1816 10.9025 26.7776 10.8092 26.2203 10.8092H23.7404V12.9092L26.29 12.9091Z"
      fill="white" />
    <path d="M32.6177 5.20471H34.7633V14.75H32.6177V5.20471Z" fill="white" />
    <path
      d="M38.0137 5.20471H39.9917L44.5614 11.0819V5.20471H46.679V14.75H44.8541L40.1311 8.68199V14.75H38.0137V5.20471Z"
      fill="white" />
    <path
      d="M53.174 5.1366H55.1522L59.3319 14.75H57.0888L56.1971 12.6092H52.0733L51.1818 14.75H48.9941L53.174 5.1366ZM55.4309 10.7545L54.1351 7.65922L52.8398 10.7545H55.4309Z"
      fill="white" />
    <path
      d="M61.6484 5.20471H63.6269L68.1963 11.0819V5.20471H70.3139V14.75H68.489L63.766 8.68199V14.75H61.6484V5.20471Z"
      fill="white" />
    <path
      d="M78.0347 14.9134C77.3192 14.9134 76.6555 14.786 76.0424 14.5317C75.4293 14.2774 74.9 13.9295 74.4542 13.4885C74.0083 13.0476 73.6598 12.5271 73.4094 11.9272C73.1586 11.3271 73.0332 10.6862 73.0332 10.0044V9.97722C73.0332 9.29539 73.1586 8.65691 73.4094 8.06137C73.66 7.46597 74.0083 6.94322 74.4542 6.49326C74.8998 6.0433 75.434 5.68859 76.0561 5.42956C76.6783 5.17053 77.366 5.04102 78.1183 5.04102C78.573 5.04102 78.9886 5.07755 79.3648 5.15006C79.741 5.22299 80.0822 5.32279 80.389 5.45003C80.6956 5.57741 80.9785 5.73195 81.239 5.91364C81.4985 6.09562 81.7402 6.2955 81.9632 6.51373L80.5981 8.05455C80.2168 7.71832 79.8293 7.45446 79.4347 7.26367C79.0397 7.07288 78.5964 6.97734 78.1042 6.97734C77.6954 6.97734 77.3169 7.05468 76.9689 7.20922C76.6206 7.36375 76.3209 7.57729 76.0701 7.84997C75.8195 8.12264 75.6245 8.43868 75.4849 8.79766C75.3459 9.15691 75.2763 9.54091 75.2763 9.94993V9.97708C75.2763 10.3861 75.3459 10.7727 75.4849 11.136C75.6245 11.4998 75.8168 11.8179 76.0633 12.0905C76.3092 12.3632 76.6065 12.5793 76.9547 12.7384C77.3033 12.8976 77.6863 12.977 78.1042 12.977C78.6616 12.977 79.1325 12.877 79.518 12.677C79.9035 12.4772 80.2868 12.2044 80.6675 11.8588L82.0329 13.2088C81.782 13.4726 81.5216 13.709 81.2528 13.9178C80.9833 14.1271 80.6885 14.3065 80.3679 14.4566C80.0476 14.6065 79.6967 14.7204 79.3163 14.7974C78.9351 14.8746 78.5081 14.9134 78.0347 14.9134Z"
      fill="white" />
    <path
      d="M84.5581 5.20471H91.9001V7.07294H86.6759V9.00926H91.2733V10.8773H86.6759V12.8819H91.9701V14.75H84.5581V5.20471Z"
      fill="white" />
  </g>
  <defs>
    <clipPath id="clip0_524_1275">
      <rect width="91.8" height="18" fill="white" transform="translate(0.100098 0.84314)" />
    </clipPath>
  </defs>
</svg>