<svg xmlns="http://www.w3.org/2000/svg" width="47" height="18" viewBox="0 0 47 18" fill="none">
  <g clip-path="url(#clip0_524_1404)">
    <path d="M32.8276 13.4244V1.58826H35.2068V13.4244H32.8276Z" fill="white" />
    <path
      d="M5.0999 16.9403H-0.000488281V5.10413H4.8948C7.27395 5.10413 8.66021 6.40076 8.66021 8.42899C8.66021 9.74187 7.7699 10.5903 7.15366 10.8728C7.88923 11.2051 8.83079 11.953 8.83079 13.533C8.83079 15.7433 7.27395 16.9403 5.0999 16.9403ZM4.70649 7.16586H2.37863V9.89217H4.70649C5.71615 9.89217 6.28109 9.34349 6.28109 8.52857C6.28109 7.71454 5.71615 7.16586 4.70649 7.16586ZM4.86031 11.9702H2.37863V14.8794H4.86031C5.93893 14.8794 6.45166 14.2149 6.45166 13.4163C6.45166 12.6185 5.93798 11.9702 4.86031 11.9702Z"
      fill="white" />
    <path
      d="M16.0867 12.0861V16.9403H13.7244V12.0861L10.0615 5.10413H12.6457L14.9223 9.87497L17.1644 5.10413H19.7486L16.0867 12.0861Z"
      fill="white" />
    <path
      d="M26.4944 16.9403H21.394V5.10413H26.2894C28.6685 5.10413 30.0547 6.40076 30.0547 8.42899C30.0547 9.74187 29.1644 10.5903 28.5482 10.8728C29.2838 11.2051 30.2254 11.953 30.2254 13.533C30.2254 15.7433 28.6685 16.9403 26.4944 16.9403ZM26.101 7.16586H23.7732V9.89217H26.101C27.1107 9.89217 27.6756 9.34349 27.6756 8.52857C27.6756 7.71454 27.1107 7.16586 26.101 7.16586ZM26.2548 11.9702H23.7732V14.8794H26.2548C27.3335 14.8794 27.8462 14.2149 27.8462 13.4163C27.8462 12.6185 27.3335 11.9702 26.2548 11.9702Z"
      fill="white" />
    <path d="M42.8743 7.16586V16.9412H40.4952V7.16586H37.3115V5.10413H46.058V7.16586H42.8743Z" fill="white" />
  </g>
  <defs>
    <clipPath id="clip0_524_1404">
      <rect width="46.0588" height="18" fill="white" />
    </clipPath>
  </defs>
</svg>