<svg xmlns="http://www.w3.org/2000/svg" width="80" height="15" viewBox="0 0 80 15" fill="none">
  <path d="M16.1461 3.98969C13.2399 3.98969 10.9691 6.19585 10.9691 9.14927C10.9691 12.1027 13.1825 14.29 16.1461 14.29C19.1097 14.29 21.3616 12.0649 21.3616 9.13039C21.3616 6.21473 19.1482 3.98969 16.1461 3.98969ZM16.1657 12.1615C14.5107 12.1615 13.298 10.8761 13.298 9.14999C13.298 7.40423 14.4911 6.1196 16.1461 6.1196C17.8207 6.1196 19.0327 7.42384 19.0327 9.14999C19.0327 10.8761 17.8207 12.1615 16.1657 12.1615ZM21.9963 6.23434H23.44V14.099H25.7492V4.1814H21.9963V6.23434ZM5.1574 6.11888C6.37014 6.11888 7.33234 6.86685 7.69761 7.97938H10.142C9.69899 5.6011 7.7361 3.98969 5.17701 3.98969C2.2708 3.98969 0 6.19585 0 9.14999C0 12.1041 2.21343 14.2907 5.17701 14.2907C7.67873 14.2907 9.68011 12.6793 10.1231 10.2814H7.69761C7.35122 11.3939 6.38902 12.1615 5.17628 12.1615C3.50169 12.1615 2.32817 10.8761 2.32817 9.14999C2.32889 7.40423 3.48353 6.11888 5.1574 6.11888ZM65.8742 8.1907L64.1807 7.94161C63.3724 7.82688 62.7951 7.55819 62.7951 6.92495C62.7951 6.23434 63.546 5.8894 64.5656 5.8894C65.6817 5.8894 66.3941 6.36869 66.5481 7.15515H68.7804C68.5298 5.16031 66.9903 3.99041 64.6237 3.99041C62.1793 3.99041 60.5628 5.23728 60.5628 7.00192C60.5628 8.68959 61.6216 9.66849 63.7573 9.97495L65.4508 10.224C66.2786 10.3388 66.7405 10.6656 66.7405 11.2792C66.7405 12.0656 65.9322 12.3917 64.8161 12.3917C63.4494 12.3917 62.6796 11.8354 62.5642 10.9916H60.2934C60.5054 12.9291 62.0253 14.2907 64.7965 14.2907C67.3178 14.2907 68.9917 13.1397 68.9917 11.1637C68.9917 9.39908 67.7797 8.47827 65.8742 8.1907ZM24.5946 0.0958571C23.7479 0.0958571 23.1124 0.709488 23.1124 1.55332C23.1124 2.39715 23.7471 3.01078 24.5946 3.01078C25.4413 3.01078 26.0768 2.39715 26.0768 1.55332C26.0768 0.709488 25.4413 0.0958571 24.5946 0.0958571ZM58.4844 7.57707C58.4844 5.429 57.1758 3.99041 54.4047 3.99041C51.7875 3.99041 50.325 5.31426 50.0359 7.34759H52.3264C52.4418 6.56113 53.0576 5.90901 54.3662 5.90901C55.5405 5.90901 56.1178 6.42678 56.1178 7.06002C56.1178 7.88497 55.059 8.09557 53.7504 8.22991C51.98 8.42163 49.7861 9.03526 49.7861 11.3373C49.7861 13.1215 51.1143 14.2718 53.2312 14.2718C54.8862 14.2718 55.9254 13.5812 56.4453 12.4876C56.5223 13.4657 57.2536 14.099 58.2738 14.099H59.6209V12.0468H58.4852V7.57707H58.4844ZM56.2136 10.0708C56.2136 11.3946 55.059 12.3728 53.6538 12.3728C52.7875 12.3728 52.0562 12.0083 52.0562 11.2414C52.0562 10.2632 53.2305 9.99455 54.3081 9.87982C55.3473 9.78396 55.9246 9.55376 56.2136 9.11223V10.0708ZM43.9548 3.98969C42.6651 3.98969 41.5875 4.52707 40.8177 5.42827V0H38.5084V14.099H40.7792V12.7947C41.549 13.7344 42.6462 14.2907 43.9548 14.2907C46.726 14.2907 48.8239 12.1041 48.8239 9.14999C48.8239 6.19585 46.6875 3.98969 43.9548 3.98969ZM43.6084 12.1615C41.9535 12.1615 40.7407 10.8761 40.7407 9.14999C40.7407 7.42384 41.9723 6.1196 43.6273 6.1196C45.3019 6.1196 46.4754 7.40496 46.4754 9.14999C46.4754 10.8761 45.2634 12.1615 43.6084 12.1615ZM32.985 3.98969C31.484 3.98969 30.5022 4.60332 29.9248 5.46676V4.1814H27.6344V14.0983H29.9437V8.70847C29.9437 7.19291 30.9059 6.11888 32.33 6.11888C33.6582 6.11888 34.4853 7.05857 34.4853 8.4209V14.099H36.7946V8.24879C36.7953 5.75433 35.5063 3.98969 32.985 3.98969ZM80 8.82394C80 5.98526 77.9216 3.99041 75.1309 3.99041C72.1673 3.99041 69.9924 6.21546 69.9924 9.14999C69.9924 12.2385 72.3213 14.2907 75.1694 14.2907C77.5753 14.2907 79.4612 12.871 79.9419 10.8573H77.536C77.1896 11.7396 76.3429 12.2385 75.2071 12.2385C73.725 12.2385 72.6088 11.3177 72.359 9.70626H79.9993V8.82394H80ZM72.4941 8.05635C72.8601 6.67514 73.8993 6.00414 75.0924 6.00414C76.401 6.00414 77.4017 6.75212 77.6326 8.05635H72.4941Z" fill="white"/>
</svg>