<?xml version="1.0" encoding="utf-8"?>
<svg viewBox="0.518 0.51 46.671 14" width="46.671" height="14" xmlns="http://www.w3.org/2000/svg">
  <path
    d="M 14.206 0.51 L 0.829 0.51 C 0.746 0.51 0.667 0.543 0.609 0.601 C 0.551 0.66 0.518 0.739 0.518 0.821 L 0.518 14.199 C 0.518 14.281 0.551 14.361 0.609 14.419 C 0.667 14.477 0.746 14.51 0.829 14.51 L 14.206 14.51 C 14.289 14.51 14.368 14.477 14.426 14.419 C 14.485 14.361 14.518 14.281 14.518 14.199 L 14.518 0.821 C 14.518 0.739 14.485 0.66 14.426 0.601 C 14.368 0.543 14.289 0.51 14.206 0.51 Z M 9.851 9.532 C 9.851 9.615 9.818 9.694 9.76 9.752 C 9.702 9.811 9.622 9.844 9.54 9.844 L 5.495 9.844 C 5.413 9.844 5.334 9.811 5.275 9.752 C 5.217 9.694 5.184 9.615 5.184 9.532 L 5.184 5.488 C 5.184 5.405 5.217 5.326 5.275 5.268 C 5.334 5.21 5.413 5.177 5.495 5.177 L 9.54 5.177 C 9.622 5.177 9.702 5.21 9.76 5.268 C 9.818 5.326 9.851 5.405 9.851 5.488 L 9.851 9.532 Z"
    fill="white" />
  <path
    d="M 42.213 5.177 L 38.169 5.177 C 37.997 5.177 37.858 5.317 37.858 5.489 L 37.858 9.533 C 37.858 9.705 37.997 9.844 38.169 9.844 L 42.213 9.844 C 42.385 9.844 42.524 9.705 42.524 9.533 L 42.524 5.489 C 42.524 5.317 42.385 5.177 42.213 5.177 Z"
    fill="white" />
  <path
    d="M 37.545 0.511 L 33.5 0.511 C 33.329 0.511 33.189 0.65 33.189 0.822 L 33.189 4.866 C 33.189 5.038 33.329 5.177 33.5 5.177 L 37.545 5.177 C 37.717 5.177 37.856 5.038 37.856 4.866 L 37.856 0.822 C 37.856 0.65 37.717 0.511 37.545 0.511 Z"
    fill="white" />
  <path
    d="M 46.878 0.511 L 42.834 0.511 C 42.662 0.511 42.523 0.65 42.523 0.822 L 42.523 4.866 C 42.523 5.038 42.662 5.177 42.834 5.177 L 46.878 5.177 C 47.05 5.177 47.189 5.038 47.189 4.866 L 47.189 0.822 C 47.189 0.65 47.05 0.511 46.878 0.511 Z"
    fill="white" />
  <path
    d="M 37.545 9.844 L 33.5 9.844 C 33.329 9.844 33.189 9.983 33.189 10.155 L 33.189 14.199 C 33.189 14.371 33.329 14.51 33.5 14.51 L 37.545 14.51 C 37.717 14.51 37.856 14.371 37.856 14.199 L 37.856 10.155 C 37.856 9.983 37.717 9.844 37.545 9.844 Z"
    fill="white" />
  <path
    d="M 46.878 9.844 L 42.834 9.844 C 42.662 9.844 42.523 9.983 42.523 10.155 L 42.523 14.199 C 42.523 14.371 42.662 14.51 42.834 14.51 L 46.878 14.51 C 47.05 14.51 47.189 14.371 47.189 14.199 L 47.189 10.155 C 47.189 9.983 47.05 9.844 46.878 9.844 Z"
    fill="white" />
  <path
    d="M 30.539 0.511 L 26.495 0.511 C 26.323 0.511 26.184 0.65 26.184 0.822 L 26.184 4.866 C 26.184 5.038 26.323 5.177 26.495 5.177 L 30.539 5.177 C 30.711 5.177 30.85 5.038 30.85 4.866 L 30.85 0.822 C 30.85 0.65 30.711 0.511 30.539 0.511 Z"
    fill="white" />
  <path
    d="M 30.539 9.844 L 26.495 9.844 C 26.323 9.844 26.184 9.983 26.184 10.155 L 26.184 14.199 C 26.184 14.371 26.323 14.51 26.495 14.51 L 30.539 14.51 C 30.711 14.51 30.85 14.371 30.85 14.199 L 30.85 10.155 C 30.85 9.983 30.711 9.844 30.539 9.844 Z"
    fill="white" />
  <path
    d="M 26.184 5.484 C 26.184 5.402 26.151 5.323 26.092 5.265 C 26.034 5.206 25.955 5.173 25.872 5.173 L 21.517 5.173 L 21.517 0.821 C 21.517 0.739 21.484 0.66 21.426 0.601 C 21.367 0.543 21.288 0.51 21.206 0.51 L 17.161 0.51 C 17.079 0.51 17 0.543 16.941 0.601 C 16.883 0.66 16.85 0.739 16.85 0.821 L 16.85 14.192 C 16.85 14.274 16.883 14.354 16.941 14.412 C 17 14.47 17.079 14.503 17.161 14.503 L 21.206 14.503 C 21.288 14.503 21.367 14.47 21.426 14.412 C 21.484 14.354 21.517 14.274 21.517 14.192 L 21.517 9.84 L 25.872 9.84 C 25.955 9.84 26.034 9.807 26.092 9.749 C 26.151 9.691 26.184 9.611 26.184 9.529 L 26.184 5.484 Z"
    fill="white" />
</svg>