<svg width="17" height="16" viewBox="0 0 17 16" fill="none" xmlns="http://www.w3.org/2000/svg"><g clip-path="url(#clip0_5472_12550)"><path opacity="0.12" d="M6.03581 14.6666C8.61314 14.6666 10.7025 12.5772 10.7025 9.99992C10.7025 7.42259 8.61314 5.33325 6.03581 5.33325C3.45848 5.33325 1.36914 7.42259 1.36914 9.99992C1.36914 12.5772 3.45848 14.6666 6.03581 14.6666Z" fill="black"></path><path d="M10.661 10.6251C12.9427 10.3196 14.7025 8.36527 14.7025 5.99992C14.7025 3.42259 12.6131 1.33325 10.0358 1.33325C7.67046 1.33325 5.71613 3.09303 5.41065 5.37476M10.7025 9.99992C10.7025 12.5772 8.61314 14.6666 6.03581 14.6666C3.45848 14.6666 1.36914 12.5772 1.36914 9.99992C1.36914 7.42259 3.45848 5.33325 6.03581 5.33325C8.61314 5.33325 10.7025 7.42259 10.7025 9.99992Z" stroke="currentColor" stroke-width="2" stroke-linecap="round" stroke-linejoin="round"></path></g><defs><clipPath id="clip0_5472_12550"><rect width="16" height="16" fill="white" transform="translate(0.0351562)"></rect></clipPath></defs></svg>